<?xml version="1.0" encoding="UTF-8" standalone="no"?>
<!-- Created with Inkscape (http://www.inkscape.org/) -->

<svg
   xmlns:dc="http://purl.org/dc/elements/1.1/"
   xmlns:cc="http://creativecommons.org/ns#"
   xmlns:rdf="http://www.w3.org/1999/02/22-rdf-syntax-ns#"
   xmlns:svg="http://www.w3.org/2000/svg"
   xmlns="http://www.w3.org/2000/svg"
   xmlns:sodipodi="http://sodipodi.sourceforge.net/DTD/sodipodi-0.dtd"
   xmlns:inkscape="http://www.inkscape.org/namespaces/inkscape"
   width="210mm"
   height="297mm"
   viewBox="0 0 210 297"
   version="1.1"
   id="svg8"
   inkscape:version="0.92.4 (unknown)"
   sodipodi:docname="checked_icon.svg">
  <defs
     id="defs2" />
  <sodipodi:namedview
     id="base"
     pagecolor="#ffffff"
     bordercolor="#666666"
     borderopacity="1.0"
     inkscape:pageopacity="0.0"
     inkscape:pageshadow="2"
     inkscape:zoom="0.5"
     inkscape:cx="614.14235"
     inkscape:cy="765.92633"
     inkscape:document-units="mm"
     inkscape:current-layer="layer1"
     showgrid="false"
     inkscape:window-width="1366"
     inkscape:window-height="717"
     inkscape:window-x="0"
     inkscape:window-y="0"
     inkscape:window-maximized="1" />
  <metadata
     id="metadata5">
    <rdf:RDF>
      <cc:Work
         rdf:about="">
        <dc:format>image/svg+xml</dc:format>
        <dc:type
           rdf:resource="http://purl.org/dc/dcmitype/StillImage" />
        <dc:title />
      </cc:Work>
    </rdf:RDF>
  </metadata>
  <g
     inkscape:label="Layer 1"
     inkscape:groupmode="layer"
     id="layer1">
    <g
       id="g880"
       transform="matrix(2.4305034,0,0,2.4305034,-150.20286,-212.42975)">
      <path
         sodipodi:nodetypes="sssssssss"
         inkscape:connector-curvature="0"
         style="fill:#ffff00;stroke-width:0.36789542"
         d="m 73.33379,109.41345 c -4.0798,0 -7.42034,3.34054 -7.42034,7.42034 v 63.33242 c 0,4.07979 3.34054,7.42034 7.42034,7.42034 h 63.33242 c 4.0798,0 7.42034,-3.34055 7.42034,-7.42034 v -63.33242 c 0,-4.0798 -3.34054,-7.42034 -7.42034,-7.42034 z"
         id="path876" />
      <path
         inkscape:connector-curvature="0"
         id="path826"
         d="m 71.66715,107.35626 c -4.294528,0 -7.810891,3.51636 -7.810891,7.81089 v 66.6657 c 0,4.29452 3.516363,7.81089 7.810891,7.81089 h 66.6657 c 4.29453,0 7.81089,-3.51637 7.81089,-7.81089 v -66.6657 c 0,-4.29453 -3.51636,-7.81089 -7.81089,-7.81089 z m 5.229657,3.84007 h 3.768762 c 1.679405,1.48672 3.797988,2.30039 5.857007,2.12442 l 1.557525,-0.13333 1.115695,4.98523 1.116211,4.98471 -2.850989,0.56069 c -1.567939,0.30841 -3.275536,0.78943 -3.795117,1.06918 -0.90374,0.4864 -0.980694,0.43051 -1.773534,-1.29139 -0.45584,-0.98998 -2.471279,-5.94061 -4.478281,-11.0014 -0.176001,-0.4438 -0.343951,-0.86304 -0.517279,-1.29811 z m 16.014525,0 h 3.234428 c 0.188587,0.17174 0.405895,0.34593 0.664559,0.52968 1.175388,0.83498 2.705232,0.50138 3.782711,-0.52968 h 3.62562 c -0.38473,2.65984 -0.81364,5.65283 -1.36891,9.59425 -1.25577,8.91401 -1.58682,11.11945 -2.06654,13.7573 -0.2628,1.44542 -0.41667,4.26004 -0.23047,4.21834 0.0702,-0.0157 0.36607,-0.75175 0.65784,-1.63556 0.65575,-1.98636 1.55045,-3.62103 2.04173,-3.73103 0.20388,-0.0456 0.15865,0.29114 -0.10025,0.74827 -0.65544,1.15714 -0.0857,3.33 1.13378,4.32428 h 5.2e-4 c 1.40043,1.14182 4.05644,0.58438 5.10666,-1.07177 1.05317,-1.66076 0.6021,-2.95486 -1.43815,-4.12687 l -1.70791,-0.98134 1.55133,-0.16071 c 2.8075,-0.29064 4.43059,-1.40823 6.01307,-4.14187 1.89347,-3.27088 2.2491,-4.65289 1.49293,-5.7981 -0.48786,-0.73889 -0.82473,-0.8296 -2.05362,-0.55448 -0.92421,0.2069 -1.78074,0.71025 -2.30684,1.35547 -0.46021,0.56445 -0.9071,0.97714 -0.9927,0.91674 -0.86521,-0.60703 -2.81874,-2.72863 -2.91714,-3.16828 -0.12405,-0.55405 0.59941,-3.69251 1.80713,-7.83932 0.12457,-0.42773 0.32544,-1.13557 0.48886,-1.70532 h 17.5581 c -0.0583,0.10733 -0.23434,0.43695 -0.25632,0.47594 -0.28841,0.51149 -3.35845,6.17845 -5.66632,10.45931 -1.10628,2.05207 -3.92572,7.18138 -4.53564,8.25169 -0.35462,0.62228 -1.24078,2.24738 -1.96939,3.61115 -0.72859,1.36378 -1.80451,3.317 -2.39107,4.34082 -0.58654,1.02382 -1.03938,1.98945 -1.00768,2.14612 0.1491,0.72201 0.86179,-0.0982 6.46523,-7.43778 0.33755,-0.44212 2.07785,-2.6389 3.86747,-4.88188 1.78961,-2.243 3.31681,-4.19477 3.39411,-4.3372 0.0773,-0.14241 0.77435,-1.01837 1.54874,-1.94665 0.77435,-0.92828 1.53502,-1.91547 1.69085,-2.19418 0.15587,-0.2787 1.6861,-2.219 3.40031,-4.31137 1.71421,-2.0924 3.1791,-3.92542 3.2551,-4.07365 0.006,-0.0125 0.0483,-0.0687 0.0718,-0.10232 h 3.57756 c 1.56152,0 2.87828,0.85133 3.53053,2.12597 -3.00233,3.33454 -5.95328,6.60348 -7.7773,8.60206 -1.22689,1.34432 -2.29403,2.5604 -2.37143,2.70268 -0.0773,0.14213 -0.89602,1.05088 -1.81953,2.01899 -0.92353,0.96815 -1.65424,1.88854 -1.62574,2.04587 0.10267,0.54598 0.92391,0.084 2.41949,-1.36064 0.8274,-0.79923 3.23955,-2.87526 5.3604,-4.61367 2.02788,-1.6622 4.7354,-3.92653 6.2544,-5.22707 v 12.45557 c -4.86495,2.78979 -7.74698,4.38216 -8.13232,4.46846 -0.29609,0.0663 -0.69265,0.42301 -0.8816,0.79272 -0.41556,0.81312 0.19886,0.71743 2.68407,-0.41755 1.27775,-0.58354 3.66387,-1.61258 6.32985,-2.74763 v 13.37437 c -10.24066,2.35135 -17.22993,3.98506 -17.23771,4.06177 -0.0198,0.19442 1.73651,0.0701 3.90312,-0.27647 2.16665,-0.34641 4.91097,-0.67737 6.09833,-0.73587 1.18737,-0.0585 3.62721,-0.32783 5.4219,-0.59841 0.53788,-0.0811 1.16141,-0.16779 1.81436,-0.25425 v 12.38374 c -4.51115,0.30502 -11.69075,0.75415 -21.02973,1.30689 -2.0464,0.12112 -4.65197,0.31811 -5.79034,0.43822 l -2.06965,0.21859 -1.85621,3.07475 c -1.02073,1.69121 -1.80418,3.30601 -1.74098,3.58841 0.0632,0.2824 0.72142,0.82828 1.46244,1.21337 0.741,0.38505 1.39203,0.89923 1.44643,1.14256 0.0545,0.24331 -0.28232,1.23274 -0.74828,2.19832 l -0.84749,1.75544 1.12603,0.81856 c 0.61924,0.4502 1.18403,0.88008 1.25574,0.95498 0.0714,0.0749 0.4621,0.0872 0.86764,0.0274 0.40555,-0.0599 1.48908,0.19516 2.40812,0.56637 1.86918,0.75497 4.57646,0.51932 5.33663,-0.46457 0.69286,-0.89672 0.7012,-2.1315 0.0181,-2.65927 -0.41498,-0.3206 -0.50217,-0.60666 -0.28784,-0.94464 0.21432,-0.33794 2.44688,0.0242 7.37422,1.19631 3.05921,0.72773 8.31551,1.92362 13.07518,2.98638 v 4.41782 c 0,2.23302 -1.7378,3.97081 -3.97082,3.97081 h -66.6657 c -2.233019,0 -3.970816,-1.73779 -3.970816,-3.97081 v -54.96461 l 0.892969,0.87023 1.07642,4.52117 c 1.014151,4.26038 1.137013,4.55079 2.130102,5.04311 1.38874,0.68849 2.837556,0.32556 3.685045,-0.92294 l 0.685232,-1.00976 1.062984,0.86661 c 0.584489,0.47656 2.348709,2.02955 3.920691,3.45095 1.57198,1.4214 3.230849,2.91301 3.68608,3.31453 0.80499,0.71001 0.851154,0.70568 1.685684,-0.15348 0.471951,-0.48588 1.073124,-1.33317 1.336352,-1.88257 0.317461,-0.66256 0.863471,-1.07336 1.621089,-1.2206 0.676352,-0.13134 1.416931,-0.62663 1.815912,-1.21439 0.416748,-0.61395 1.0917,-1.05326 1.769401,-1.15135 0.834679,-0.1209 1.083596,-0.345 1.044896,-0.94103 -0.144389,-2.22606 -0.350965,-6.23612 -0.470255,-9.12038 -0.07368,-1.78359 -0.202586,-4.745 -0.286287,-6.58151 -0.08374,-1.83649 -0.216339,-4.79868 -0.294039,-6.58254 -0.02646,-0.60661 -0.09267,-1.87913 -0.147278,-2.95796 z m -21.415229,0.008 c 0.530018,1.10534 1.079648,2.24656 1.616437,3.34656 3.4934,7.15878 4.986332,10.25178 6.309693,13.07208 0.69509,1.48137 1.55978,3.21926 1.92133,3.86229 1.05386,1.8742 0.571323,1.66851 -1.299146,-0.55397 -0.956469,-1.13646 -4.921422,-5.81815 -8.810831,-10.40402 -1.097389,-1.29389 -2.331138,-2.75476 -3.537252,-4.18165 v -1.17874 c 0,-2.17521 1.65036,-3.87571 3.799769,-3.96255 z m 52.955417,20.51296 c -0.61037,-0.0121 -1.30784,0.0661 -2.11149,0.22634 -3.64552,0.72686 -3.42482,4.82916 0.33641,6.25595 3.11072,1.18003 6.52159,-1.13456 5.44928,-3.69797 -0.79378,-1.89756 -1.84307,-2.74805 -3.6742,-2.78432 z m 7.31377,4.60127 c -0.22925,0.009 -0.51508,0.044 -0.87902,0.0982 -1.31908,0.19661 -1.76722,0.46272 -2.36419,1.40405 -0.40505,0.63887 -0.65889,1.50963 -0.56379,1.93477 0.20687,0.92401 0.23957,0.92067 1.80505,-0.18759 0.67637,-0.47883 1.73054,-0.98284 2.3425,-1.11983 0.98985,-0.2216 1.07391,-0.35979 0.76016,-1.26142 -0.23627,-0.67914 -0.41296,-0.89437 -1.10071,-0.86816 z m -54.356372,2.72128 c -0.05336,-0.002 -0.106047,-5.1e-4 -0.157612,0.003 -0.893802,0.0536 -1.514578,0.80694 -1.750798,2.16318 -0.162629,0.93365 -0.401077,1.2422 -0.888318,1.1498 -1.743598,-0.33022 -2.729973,-0.0202 -3.145543,0.98857 -0.541991,1.31551 -0.129887,3.09232 0.882634,3.80752 1.278789,0.9033 3.303402,0.0713 3.920172,-1.61127 0.400902,-1.09361 0.741447,-1.40236 1.775087,-1.60766 1.462199,-0.29042 2.129441,-1.37143 1.782321,-2.88406 -0.27228,-1.18304 -0.683054,-1.59712 -1.914613,-1.93063 -0.17545,-0.0475 -0.343262,-0.0734 -0.50333,-0.078 z m 22.060154,3.35276 c -0.952706,-0.0284 -2.354109,0.21374 -4.570264,0.67955 -4.330301,0.91025 -4.745511,1.06539 -5.703012,2.1332 -2.326748,2.59487 -1.77288,4.21651 1.69137,4.94906 1.32447,0.28005 2.681796,0.53315 3.015837,0.56275 4.08037,0.36098 9.160707,-4.05496 7.792807,-6.77375 -0.51857,-1.03065 -1.00183,-1.51431 -2.226738,-1.55081 z m -16.992245,2.08515 c -0.434523,0.008 -0.960991,0.16382 -1.838132,0.44545 -3.620595,1.16249 -5.979179,4.50832 -7.905459,11.21482 -0.7888,2.74621 -0.936254,4.90558 -0.580842,8.51318 0.468328,4.75334 6.317149,12.30463 11.427208,14.7531 1.948511,0.93363 5.788885,1.95771 7.468796,1.99161 2.002705,0.0404 7.554172,-1.28682 9.449552,-2.2593 0.98305,-0.50438 3.01321,-2.06778 4.51187,-3.4742 2.5096,-2.35514 2.77451,-2.761 3.3507,-5.13715 0.72561,-2.99261 0.43356,-3.90513 -1.76217,-5.50613 -1.31877,-0.96157 -1.65375,-1.01824 -3.80907,-0.64285 l -2.36316,0.41134 -0.27182,-1.40767 c -0.14941,-0.77435 -0.0351,-2.45688 0.25425,-3.73879 0.28923,-1.28187 0.47293,-2.56877 0.40772,-2.85977 -0.1627,-0.72685 -2.283513,-1.68786 -3.261294,-1.47743 -0.440439,0.0946 -1.682756,-0.17749 -2.760554,-0.60461 -1.77718,-0.70424 -2.204125,-0.71344 -4.586285,-0.10129 -1.44489,0.37061 -2.918574,0.71511 -3.274735,0.76481 -1.091999,0.15183 -1.439717,-1.10743 -0.903822,-3.27266 0.473202,-1.91243 0.455753,-3.24348 -0.06718,-5.12114 -0.117891,-0.42328 -0.890186,-1.20865 -1.716175,-1.74563 -0.804296,-0.52285 -1.210731,-0.75619 -1.769401,-0.74569 z m 26.724463,2.31975 c -0.65628,-0.002 -1.43541,0.0665 -2.35438,0.20051 -3.36385,0.49036 -4.47971,1.27009 -4.51341,3.15278 -0.011,0.6152 -0.18678,1.87025 -0.39068,2.78897 -0.86733,3.90734 0.3602,6.61643 3.13211,6.91173 v 5.1e-4 c 0.78262,0.0834 1.6643,0.0322 1.95905,-0.11368 0.29474,-0.14583 1.49296,-0.68854 2.66289,-1.20561 3.49714,-1.54559 3.64908,-2.11893 2.54817,-9.63611 -0.21179,-1.44614 -1.07488,-2.0924 -3.04375,-2.0991 z m 23.273,4.33462 c -0.2237,0.003 -0.4544,0.0342 -0.70538,0.0904 -3.21344,0.71943 -2.90572,4.47815 0.37775,4.61315 1.6514,0.0679 2.66478,-0.44605 3.42977,-1.73994 l 0.65164,-1.10226 -1.57303,-1.0325 c -0.9018,-0.59192 -1.50965,-0.83784 -2.18075,-0.82889 z m 9.82938,12.74186 v 3.20756 c -0.99433,-0.15411 -1.50404,0.0454 -3.46698,1.31258 l -2.34301,1.51205 -4.72167,-0.22324 c -2.59708,-0.1229 -4.85878,-0.31031 -5.02553,-0.416 -0.25858,-0.16395 0.65265,-5.15873 0.95343,-5.22604 0.0584,-0.0131 2.65439,-0.0371 5.76864,-0.0537 3.11427,-0.0162 6.8156,-0.0621 8.22533,-0.10232 0.10023,-0.003 0.43576,-0.007 0.60979,-0.0108 z"
         style="fill:#000000;stroke-width:0.38725835" />
    </g>
  </g>
</svg>
